<?xml version="1.0" encoding="UTF-8"?>
<svg version="1.1" xmlns="http://www.w3.org/2000/svg" width="512" height="512">
<path d="M0 0 C1.56518856 1.30929266 3.12796844 2.62147424 4.6875 3.9375 C5.27789062 4.38222656 5.86828125 4.82695313 6.4765625 5.28515625 C24.83183351 19.50831648 35.98942738 44.52396109 38.96748352 67.05584717 C39.80885819 74.55952413 39.85135672 82.03501075 39.85546875 89.578125 C39.85869504 90.99086539 39.86206005 92.40360547 39.86555481 93.81634521 C39.8715124 96.77145152 39.87339856 99.72652875 39.87280273 102.68164062 C39.87272202 105.66412492 39.8795813 108.64645385 39.89331055 111.62890625 C40.14732575 167.68366134 30.08351049 221.08441897 -4.3125 266.9375 C-4.75948242 267.53852539 -5.20646484 268.13955078 -5.66699219 268.75878906 C-12.3372332 277.66685031 -19.61889848 285.90522197 -27.3125 293.9375 C-28.37597656 295.06285156 -28.37597656 295.06285156 -29.4609375 296.2109375 C-34.68775142 301.60842289 -40.43343999 306.27182787 -46.3125 310.9375 C-47.20839844 311.68515625 -48.10429687 312.4328125 -49.02734375 313.203125 C-87.23731283 344.18140866 -137.07000685 360.38259783 -185.9375 361.3125 C-187.14563354 361.35177612 -187.14563354 361.35177612 -188.37817383 361.3918457 C-196.60397305 361.41493507 -203.79417261 358.30889171 -209.8046875 352.67578125 C-215.25931333 346.38741727 -216.02096854 339.51042781 -215.7578125 331.37890625 C-214.87309051 324.54171259 -212.04032608 319.2457596 -207.0625 314.5 C-200.40256795 309.5471127 -193.09403114 308.55146604 -185 308.4375 C-136.591618 306.78870698 -91.79912477 285.79176107 -58.7578125 250.53076172 C-38.96373426 228.71046533 -25.19354303 201.47359022 -18.3125 172.9375 C-19.18390625 173.33582031 -20.0553125 173.73414063 -20.953125 174.14453125 C-45.57007156 185.09427696 -72.95628415 186.46953387 -98.4375 177.25 C-109.78194585 172.88515529 -120.01930969 166.77862932 -129.3125 158.9375 C-130.2715625 158.195 -130.2715625 158.195 -131.25 157.4375 C-149.80576762 142.47317127 -160.57545492 119.02958959 -164.3125 95.9375 C-164.71621082 91.17737644 -164.79088203 86.46297165 -164.75 81.6875 C-164.74170166 80.42333252 -164.73340332 79.15916504 -164.72485352 77.85668945 C-164.21464703 49.43582772 -152.26570637 25.41481655 -132.21923828 5.40991211 C-96.83977295 -28.46857313 -38.10920355 -30.13152389 0 0 Z " fill="#000000" transform="translate(217.3125,86.0625)"/>
<path d="M0 0 C3.492934 2.85167212 6.77064106 5.85517925 10 9 C11.06154297 9.98613281 11.06154297 9.98613281 12.14453125 10.9921875 C28.14027776 26.22331897 39.37413981 49.97693692 40.20230103 72.12127686 C40.32183686 77.05958793 40.33184167 81.99797036 40.3359375 86.9375 C40.34238603 88.78523861 40.3491158 90.63297626 40.35610962 92.48071289 C40.36804182 96.35044712 40.37179542 100.22009244 40.37060547 104.08984375 C40.37044404 108.00149249 40.38415603 111.91266734 40.41162109 115.82421875 C40.78357532 169.61719466 31.4465708 220.57555009 -1 265 C-1.62237549 265.85343994 -1.62237549 265.85343994 -2.25732422 266.72412109 C-7.14823759 273.36756475 -12.33516446 279.68031732 -17.93359375 285.74609375 C-19.76740558 287.7463006 -21.51037367 289.79343238 -23.25 291.875 C-41.72509167 312.92310672 -66.65762762 329.4534753 -92 341 C-93.07338623 341.4942749 -93.07338623 341.4942749 -94.16845703 341.99853516 C-122.1515412 354.7436079 -168.74158155 370.96195427 -199.75 360.5625 C-206.564511 357.1250918 -211.52946149 351.29053237 -214.0625 344.125 C-215.87338298 336.55221661 -215.24641714 328.670657 -211.3515625 321.84765625 C-206.51143878 315.23095533 -200.87749842 311.90425005 -193 310 C-189.89275201 309.61746192 -186.81574448 309.54434772 -183.6875 309.5 C-136.20313102 307.84686675 -92.22490508 287.4533282 -59.203125 253.453125 C-54.49093238 248.20621548 -50.19629079 242.66408558 -46 237 C-45.37158203 236.16202881 -45.37158203 236.16202881 -44.73046875 235.30712891 C-31.43006044 217.33574386 -22.96560236 196.41110091 -17 175 C-19.70895751 175.64301442 -22.3156785 176.41568711 -24.94140625 177.33984375 C-25.69099609 177.59830078 -26.44058594 177.85675781 -27.21289062 178.12304688 C-28.75368542 178.65713784 -30.29282333 179.19603823 -31.83007812 179.74023438 C-55.68707585 187.9087731 -82.75027858 185.73693069 -105.359375 174.83984375 C-106.57514983 174.23100154 -107.78881301 173.61791856 -109 173 C-110.05703125 172.46503906 -111.1140625 171.93007813 -112.203125 171.37890625 C-134.76999748 159.06164732 -152.20814477 137.3898047 -159.66845703 112.79638672 C-161.90410803 104.68396506 -163.68013232 96.4278179 -164 88 C-164.05994141 86.64261719 -164.05994141 86.64261719 -164.12109375 85.2578125 C-164.70021749 59.57197148 -156.29247201 35.73006806 -140 16 C-139.37609375 15.21238281 -138.7521875 14.42476562 -138.109375 13.61328125 C-104.38280833 -26.98613619 -41.12749175 -30.32324361 0 0 Z " fill="#000000" transform="translate(470,85)"/>
</svg>
